<svg version="1.1" id="Layer_1" xmlns="http://www.w3.org/2000/svg" xmlns:xlink="http://www.w3.org/1999/xlink" x="0px" y="0px"
	 width="100%" viewBox="0 0 2816 1536" enable-background="new 0 0 2816 1536" xml:space="preserve">
<path fill="#FEFEFE" opacity="1.000000" stroke="none" 
	d="
M2148.000000,1538.000000 
	C1432.082031,1538.000000 717.164001,1538.000000 2.122994,1538.000000 
	C2.122994,1026.140747 2.122994,514.281433 2.122994,2.211068 
	C940.418274,2.211068 1878.836548,2.211068 2817.627441,2.211068 
	C2817.627441,513.999756 2817.627441,1025.999878 2817.627441,1538.000000 
	C2594.947510,1538.000000 2371.973877,1538.000000 2148.000000,1538.000000 
M1108.280029,1082.786987 
	C1115.724976,1083.990356 1117.884399,1078.632446 1120.261719,1073.316772 
	C1150.312378,1006.127502 1180.592407,939.039490 1210.273682,871.687683 
	C1214.508179,862.078674 1219.638184,858.686401 1230.277588,858.711121 
	C1382.271851,859.064636 1534.267456,859.017334 1686.261841,858.689819 
	C1695.339478,858.670288 1699.781982,861.467834 1703.511597,869.657837 
	C1726.697754,920.575317 1750.126343,971.388062 1774.065796,1021.955627 
	C1821.378296,1121.893555 1868.970825,1221.699463 1916.671875,1321.452759 
	C1932.761597,1355.099976 1949.823975,1388.283325 1965.789429,1421.987793 
	C1970.015503,1430.909424 1975.406128,1433.709961 1985.032837,1433.454590 
	C2010.013916,1432.791870 2035.025391,1433.284180 2060.024658,1433.298706 
	C2130.022461,1433.339355 2200.020508,1433.393433 2270.018311,1433.339478 
	C2273.428711,1433.336914 2277.350098,1434.786011 2280.461670,1431.171753 
	C2279.506836,1429.031860 2278.676514,1426.873047 2277.614502,1424.834839 
	C2260.068115,1391.162720 2242.215576,1357.647095 2224.977539,1323.817993 
	C2180.214600,1235.972290 2135.219971,1148.239136 2091.235352,1060.003662 
	C2027.337769,931.822327 1963.870483,803.423157 1900.920776,674.773804 
	C1843.096313,556.598938 1786.125244,438.005981 1728.921753,319.527985 
	C1692.426270,243.939484 1656.135498,168.251785 1619.953003,92.513023 
	C1617.228271,86.809349 1614.508545,83.816780 1607.471924,83.836647 
	C1507.808838,84.117897 1408.144775,84.103622 1308.481079,83.974998 
	C1302.679321,83.967514 1299.678223,85.794518 1297.118774,91.158348 
	C1276.319824,134.747101 1255.104492,178.136917 1234.124634,221.639740 
	C1194.481323,303.841797 1154.961182,386.103363 1115.296387,468.295013 
	C1066.075562,570.288452 1016.680054,672.197571 967.508362,774.214600 
	C919.350281,874.128479 871.375977,974.131042 823.341064,1074.104248 
	C822.225769,1076.425415 821.349365,1078.861206 819.721069,1082.788208 
	C916.075928,1082.788208 1011.255127,1082.788208 1108.280029,1082.786987 
M495.000000,83.943184 
	C473.335205,83.952911 451.670258,83.920326 430.005615,83.984283 
	C408.472321,84.047844 386.927063,83.700638 364.670959,84.197510 
	C364.670959,534.347046 364.670959,983.162842 364.670959,1431.998413 
	C365.787445,1432.482666 366.662659,1433.121460 367.592621,1433.214722 
	C369.905640,1433.446899 372.243683,1433.504395 374.571594,1433.503784 
	C876.540283,1433.372681 1378.509033,1433.230347 1880.477661,1433.064941 
	C1880.732422,1433.064941 1881.021606,1432.742920 1881.232544,1432.513794 
	C1881.455200,1432.272461 1881.603149,1431.962280 1882.267334,1430.931763 
	C1839.485718,1342.364990 1796.501831,1253.379761 1753.275146,1163.891724 
	C1381.778564,1163.891724 1010.897827,1163.891724 639.054077,1163.891724 
	C638.837830,1158.808838 638.501343,1154.576904 638.500244,1150.345093 
	C638.438965,920.347717 638.383362,690.350342 638.379089,460.352966 
	C638.376831,338.687714 638.473755,217.022476 638.493103,95.357216 
	C638.493713,91.849854 638.122559,88.342430 637.874207,83.940056 
	C590.190735,83.940056 543.595398,83.940056 495.000000,83.943184 
M2422.644287,573.000122 
	C2422.637207,548.341064 2422.747803,523.681274 2422.589355,499.023193 
	C2422.430176,474.210297 2423.294922,449.371002 2422.178467,424.582825 
	C2331.215332,424.582825 2241.431885,424.582825 2151.005615,424.582825 
	C2150.820801,428.554565 2150.538086,431.807861 2150.536621,435.061249 
	C2150.456787,619.007141 2150.457031,802.953064 2150.196533,986.898682 
	C2150.181396,997.593201 2152.588379,1007.012939 2157.424072,1016.451111 
	C2195.073730,1089.935547 2232.206055,1163.685791 2270.023682,1237.082886 
	C2290.764648,1277.336914 2312.599121,1317.026123 2333.795898,1357.046753 
	C2346.108154,1380.292480 2358.236572,1403.637451 2370.201172,1427.063721 
	C2372.617432,1431.794922 2375.479980,1434.106079 2381.001465,1433.761108 
	C2387.970947,1433.326050 2394.990479,1433.690674 2401.988281,1433.699219 
	C2408.546875,1433.707275 2415.105469,1433.700928 2422.646240,1433.700928 
	C2422.646240,1146.663330 2422.646240,860.831726 2422.644287,573.000122 
M2343.000000,345.627228 
	C2369.211426,345.627228 2395.422852,345.627228 2422.001465,345.627228 
	C2422.001465,257.923950 2422.001465,171.538330 2422.001465,85.290649 
	C2409.431152,82.842957 2158.507080,83.421494 2150.456787,86.088303 
	C2150.456787,107.350487 2150.454102,128.937347 2150.457520,150.524200 
	C2150.461182,172.174057 2150.485840,193.823944 2150.473877,215.473785 
	C2150.462158,237.123596 2150.225098,258.775269 2150.439941,280.422638 
	C2150.652832,301.877808 2149.557617,323.380554 2151.144043,345.626099 
	C2215.196533,345.626099 2278.098389,345.626099 2343.000000,345.627228 
z"/>
<path fill="#010101" opacity="1.000000" stroke="none" 
	d="
M1107.357178,1082.787598 
	C1011.255127,1082.788208 916.075928,1082.788208 819.721069,1082.788208 
	C821.349365,1078.861206 822.225769,1076.425415 823.341064,1074.104248 
	C871.375977,974.131042 919.350281,874.128479 967.508362,774.214600 
	C1016.680054,672.197571 1066.075562,570.288452 1115.296387,468.295013 
	C1154.961182,386.103363 1194.481323,303.841797 1234.124634,221.639740 
	C1255.104492,178.136917 1276.319824,134.747101 1297.118774,91.158348 
	C1299.678223,85.794518 1302.679321,83.967514 1308.481079,83.974998 
	C1408.144775,84.103622 1507.808838,84.117897 1607.471924,83.836647 
	C1614.508545,83.816780 1617.228271,86.809349 1619.953003,92.513023 
	C1656.135498,168.251785 1692.426270,243.939484 1728.921753,319.527985 
	C1786.125244,438.005981 1843.096313,556.598938 1900.920776,674.773804 
	C1963.870483,803.423157 2027.337769,931.822327 2091.235352,1060.003662 
	C2135.219971,1148.239136 2180.214600,1235.972290 2224.977539,1323.817993 
	C2242.215576,1357.647095 2260.068115,1391.162720 2277.614502,1424.834839 
	C2278.676514,1426.873047 2279.506836,1429.031860 2280.461670,1431.171753 
	C2277.350098,1434.786011 2273.428711,1433.336914 2270.018311,1433.339478 
	C2200.020508,1433.393433 2130.022461,1433.339355 2060.024658,1433.298706 
	C2035.025391,1433.284180 2010.013916,1432.791870 1985.032837,1433.454590 
	C1975.406128,1433.709961 1970.015503,1430.909424 1965.789429,1421.987793 
	C1949.823975,1388.283325 1932.761597,1355.099976 1916.671875,1321.452759 
	C1868.970825,1221.699463 1821.378296,1121.893555 1774.065796,1021.955627 
	C1750.126343,971.388062 1726.697754,920.575317 1703.511597,869.657837 
	C1699.781982,861.467834 1695.339478,858.670288 1686.261841,858.689819 
	C1534.267456,859.017334 1382.271851,859.064636 1230.277588,858.711121 
	C1219.638184,858.686401 1214.508179,862.078674 1210.273682,871.687683 
	C1180.592407,939.039490 1150.312378,1006.127502 1120.261719,1073.316772 
	C1117.884399,1078.632446 1115.724976,1083.990356 1107.357178,1082.787598 
M1331.983887,612.724243 
	C1334.835205,613.334106 1337.680542,614.433167 1340.538818,614.467651 
	C1351.859131,614.604065 1363.183594,614.334351 1374.506348,614.345947 
	C1440.784424,614.413696 1507.062378,614.508423 1573.340454,614.633118 
	C1577.816528,614.641541 1582.154419,614.713379 1583.533203,609.567566 
	C1567.834595,575.367981 1551.679077,541.773987 1536.922363,507.576508 
	C1522.078125,473.176453 1504.603271,439.986389 1492.098999,404.463745 
	C1483.399780,379.750671 1471.019409,356.331909 1460.234497,332.356934 
	C1459.215698,330.091980 1457.845947,327.984833 1455.933350,324.529114 
	C1453.996216,328.461792 1452.606323,330.961243 1451.499146,333.580231 
	C1438.983276,363.187592 1424.521729,391.846954 1413.427734,422.214874 
	C1400.448608,457.742798 1383.061646,491.666656 1367.450562,526.224792 
	C1355.669312,552.304871 1343.626099,578.266541 1331.861206,604.353760 
	C1330.882324,606.524414 1331.137939,609.251831 1331.983887,612.724243 
z"/>
<path fill="#12605A" opacity="1.000000" stroke="none" 
	d="
M496.000000,83.941620 
	C543.595398,83.940056 590.190735,83.940056 637.874207,83.940056 
	C638.122559,88.342430 638.493713,91.849854 638.493103,95.357216 
	C638.473755,217.022476 638.376831,338.687714 638.379089,460.352966 
	C638.383362,690.350342 638.438965,920.347717 638.500244,1150.345093 
	C638.501343,1154.576904 638.837830,1158.808838 639.054077,1163.891724 
	C1010.897827,1163.891724 1381.778564,1163.891724 1753.275146,1163.891724 
	C1796.501831,1253.379761 1839.485718,1342.364990 1882.267334,1430.931763 
	C1881.603149,1431.962280 1881.455200,1432.272461 1881.232544,1432.513794 
	C1881.021606,1432.742920 1880.732422,1433.064941 1880.477661,1433.064941 
	C1378.509033,1433.230347 876.540283,1433.372681 374.571594,1433.503784 
	C372.243683,1433.504395 369.905640,1433.446899 367.592621,1433.214722 
	C366.662659,1433.121460 365.787445,1432.482666 364.670959,1431.998413 
	C364.670959,983.162842 364.670959,534.347046 364.670959,84.197510 
	C386.927063,83.700638 408.472321,84.047844 430.005615,83.984283 
	C451.670258,83.920326 473.335205,83.952911 496.000000,83.941620 
z"/>
<path fill="#020202" opacity="1.000000" stroke="none" 
	d="
M2422.645264,574.000122 
	C2422.646240,860.831726 2422.646240,1146.663330 2422.646240,1433.700928 
	C2415.105469,1433.700928 2408.546875,1433.707275 2401.988281,1433.699219 
	C2394.990479,1433.690674 2387.970947,1433.326050 2381.001465,1433.761108 
	C2375.479980,1434.106079 2372.617432,1431.794922 2370.201172,1427.063721 
	C2358.236572,1403.637451 2346.108154,1380.292480 2333.795898,1357.046753 
	C2312.599121,1317.026123 2290.764648,1277.336914 2270.023682,1237.082886 
	C2232.206055,1163.685791 2195.073730,1089.935547 2157.424072,1016.451111 
	C2152.588379,1007.012939 2150.181396,997.593201 2150.196533,986.898682 
	C2150.457031,802.953064 2150.456787,619.007141 2150.536621,435.061249 
	C2150.538086,431.807861 2150.820801,428.554565 2151.005615,424.582825 
	C2241.431885,424.582825 2331.215332,424.582825 2422.178467,424.582825 
	C2423.294922,449.371002 2422.430176,474.210297 2422.589355,499.023193 
	C2422.747803,523.681274 2422.637207,548.341064 2422.645264,574.000122 
z"/>
<path fill="#125E58" opacity="1.000000" stroke="none" 
	d="
M2342.000000,345.626648 
	C2278.098389,345.626099 2215.196533,345.626099 2151.144043,345.626099 
	C2149.557617,323.380554 2150.652832,301.877808 2150.439941,280.422638 
	C2150.225098,258.775269 2150.462158,237.123596 2150.473877,215.473785 
	C2150.485840,193.823944 2150.461182,172.174057 2150.457520,150.524200 
	C2150.454102,128.937347 2150.456787,107.350487 2150.456787,86.088303 
	C2158.507080,83.421494 2409.431152,82.842957 2422.001465,85.290649 
	C2422.001465,171.538330 2422.001465,257.923950 2422.001465,345.627228 
	C2395.422852,345.627228 2369.211426,345.627228 2342.000000,345.626648 
z"/>
<path fill="#FBFBFB" opacity="1.000000" stroke="none" 
	d="
M1331.401855,612.222412 
	C1331.137939,609.251831 1330.882324,606.524414 1331.861206,604.353760 
	C1343.626099,578.266541 1355.669312,552.304871 1367.450562,526.224792 
	C1383.061646,491.666656 1400.448608,457.742798 1413.427734,422.214874 
	C1424.521729,391.846954 1438.983276,363.187592 1451.499146,333.580231 
	C1452.606323,330.961243 1453.996216,328.461792 1455.933350,324.529114 
	C1457.845947,327.984833 1459.215698,330.091980 1460.234497,332.356934 
	C1471.019409,356.331909 1483.399780,379.750671 1492.098999,404.463745 
	C1504.603271,439.986389 1522.078125,473.176453 1536.922363,507.576508 
	C1551.679077,541.773987 1567.834595,575.367981 1583.533203,609.567566 
	C1582.154419,614.713379 1577.816528,614.641541 1573.340454,614.633118 
	C1507.062378,614.508423 1440.784424,614.413696 1374.506348,614.345947 
	C1363.183594,614.334351 1351.859131,614.604065 1340.538818,614.467651 
	C1337.680542,614.433167 1334.835205,613.334106 1331.401855,612.222412 
z"/>
</svg>