<svg xmlns="http://www.w3.org/2000/svg" width="108" height="108" viewBox="0 0 108 108">
  <!-- Rounded teal background -->
  <path fill="#00695C" d="M0,24C0,10.745 10.745,0 24,0h60c13.255,0 24,10.745 24,24v60c0,13.255-10.745,24-24,24H24C10.745,108 0,97.255 0,84z"/>
  <!-- Shield with check mark, centered -->
  <g transform="translate(18,18) scale(3)">
    <path fill="#FFFFFF" d="M12,1L3,5v6c0,5.55 3.84,10.74 9,12 5.16-1.26 9-6.45 9-12V5L12,1zM10,17l-4-4 1.41-1.41L10,14.17l6.59-6.59L18,9l-8,8z"/>
  </g>
</svg>
